<?xml version="1.0" encoding="UTF-8" standalone="no"?>
<svg
   xmlns:dc="http://purl.org/dc/elements/1.1/"
   xmlns:cc="http://creativecommons.org/ns#"
   xmlns:rdf="http://www.w3.org/1999/02/22-rdf-syntax-ns#"
   xmlns:svg="http://www.w3.org/2000/svg"
   xmlns="http://www.w3.org/2000/svg"
   xmlns:sodipodi="http://sodipodi.sourceforge.net/DTD/sodipodi-0.dtd"
   xmlns:inkscape="http://www.inkscape.org/namespaces/inkscape"
   enable-background="new 0 0 24 24"
   height="24px"
   id="Layer_1"
   version="1.1"
   viewBox="0 0 24 24"
   width="24px"
   xml:space="preserve"
   sodipodi:docname="iconfinder_office-18_809611.svg"
   inkscape:version="0.92.0 r15299"><metadata
     id="metadata4510"><rdf:RDF><cc:Work
         rdf:about=""><dc:format>image/svg+xml</dc:format><dc:type
           rdf:resource="http://purl.org/dc/dcmitype/StillImage" /></cc:Work></rdf:RDF></metadata><defs
     id="defs4508" /><sodipodi:namedview
     pagecolor="#ffffff"
     bordercolor="#666666"
     borderopacity="1"
     objecttolerance="10"
     gridtolerance="10"
     guidetolerance="10"
     inkscape:pageopacity="0"
     inkscape:pageshadow="2"
     inkscape:window-width="1920"
     inkscape:window-height="1017"
     id="namedview4506"
     showgrid="false"
     inkscape:zoom="35.333333"
     inkscape:cx="12"
     inkscape:cy="12"
     inkscape:window-x="-8"
     inkscape:window-y="-8"
     inkscape:window-maximized="1"
     inkscape:current-layer="Layer_1" /><g
     id="g4503"
     style="fill:#ffffff"><path
       d="M19,0H1C0.4,0,0,0.4,0,1v22c0,0.6,0.4,1,1,1h18c0.6,0,1-0.4,1-1V1C20,0.4,19.6,0,19,0z M18,22H2V2h16V22z"
       id="path4485"
       style="fill:#ffffff" /><path
       d="M8,16h4v-4H8V16z M9,13h2v2H9V13z"
       id="path4487"
       style="fill:#ffffff" /><path
       d="M13,16h4v-4h-4V16z M14,13h2v2h-2V13z"
       id="path4489"
       style="fill:#ffffff" /><path
       d="M7,12H3v4h4V12z M6,15H4v-2h2V15z"
       id="path4491"
       style="fill:#ffffff" /><path
       d="M8,21h4v-4H8V21z M9,18h2v2H9V18z"
       id="path4493"
       style="fill:#ffffff" /><path
       d="M13,21h4v-4h-4V21z M14,18h2v2h-2V18z"
       id="path4495"
       style="fill:#ffffff" /><path
       d="M7,17H3v4h4V17z M6,20H4v-2h2V20z"
       id="path4497"
       style="fill:#ffffff" /><path
       d="M17,3H3v6h14V3z M16,8H4V4h12V8z"
       id="path4499"
       style="fill:#ffffff" /><rect
       height="2"
       width="1"
       x="14"
       y="5"
       id="rect4501"
       style="fill:#ffffff" /></g></svg>