<?xml version="1.0" encoding="UTF-8" standalone="no"?>
<svg
   xmlns:dc="http://purl.org/dc/elements/1.1/"
   xmlns:cc="http://creativecommons.org/ns#"
   xmlns:rdf="http://www.w3.org/1999/02/22-rdf-syntax-ns#"
   xmlns:svg="http://www.w3.org/2000/svg"
   xmlns="http://www.w3.org/2000/svg"
   xmlns:sodipodi="http://sodipodi.sourceforge.net/DTD/sodipodi-0.dtd"
   xmlns:inkscape="http://www.inkscape.org/namespaces/inkscape"
   id="Layer_1"
   style="enable-background:new 0 0 512 512;"
   version="1.1"
   viewBox="0 0 512 512"
   xml:space="preserve"
   sodipodi:docname="iconfinder_Mobile_Chat_4341241.svg"
   inkscape:version="0.92.0 r15299"><metadata
     id="metadata86"><rdf:RDF><cc:Work
         rdf:about=""><dc:format>image/svg+xml</dc:format><dc:type
           rdf:resource="http://purl.org/dc/dcmitype/StillImage" /></cc:Work></rdf:RDF></metadata><defs
     id="defs84" /><sodipodi:namedview
     pagecolor="#ffffff"
     bordercolor="#666666"
     borderopacity="1"
     objecttolerance="10"
     gridtolerance="10"
     guidetolerance="10"
     inkscape:pageopacity="0"
     inkscape:pageshadow="2"
     inkscape:window-width="1920"
     inkscape:window-height="1017"
     id="namedview82"
     showgrid="false"
     inkscape:zoom="0.4609375"
     inkscape:cx="256"
     inkscape:cy="256"
     inkscape:window-x="-8"
     inkscape:window-y="-8"
     inkscape:window-maximized="1"
     inkscape:current-layer="Layer_1" /><style
     type="text/css"
     id="style73">
	.st0{fill:#787B8A;}
</style><g
     id="g79"
     style="fill:#ffffff"><path
       class="st0"
       d="M128.6,65.8h116.7c5.4,0,9.8-4.4,9.8-9.8s-4.4-9.8-9.8-9.8H128.6c-5.4,0-9.8,4.4-9.8,9.8   S123.2,65.8,128.6,65.8z"
       id="path75"
       style="fill:#ffffff" /><path
       class="st0"
       d="M454.1,157.7H338.4V56c0-28.4-23.1-51.5-51.5-51.5h-200C58.5,4.5,35.4,27.6,35.4,56v400   c0,28.4,23.1,51.5,51.5,51.5h200c28.4,0,51.5-23.1,51.5-51.5v-84.4h34.9l57.1,44.1l0,0c2.8,2.2,6.9,2.6,10.1,1   c3.3-1.6,5.4-4.9,5.4-8.6v-36.5h8.2c12.4,0,22.5-10.1,22.5-22.5V182.7C476.6,167.6,467.7,157.7,454.1,157.7z M286.9,487.8h-200   c-17.6,0-31.8-14.3-31.8-31.8v-6.8h263.7v6.8C318.7,473.6,304.5,487.8,286.9,487.8z M318.7,157.7h-136c-13.7,0-22.5,9.8-22.5,25   v166.4c0,12.4,10.1,22.5,22.5,22.5h136v57.9H55.1v-322h263.7V157.7z M179.5,182.7c0-5.7,1.7-5.7,3.3-5.7h271.3c1.5,0,3.3,0,3.3,5.7   v166.4c0,1.8-1.5,3.3-3.3,3.3h-17.8c-5.3,0-9.6,4.3-9.6,9.6v26.5l-44.2-34.1c-1.7-1.3-3.8-2-5.9-2H182.8c-1.8,0-3.3-1.5-3.3-3.3   V182.7z M86.9,24.2h200c17.6,0,31.8,14.3,31.8,31.8v31.8H55.1V56C55.1,38.4,69.4,24.2,86.9,24.2z"
       id="path77"
       style="fill:#ffffff" /></g></svg>