<?xml version="1.0" encoding="UTF-8" standalone="no"?>
<svg
   xmlns:dc="http://purl.org/dc/elements/1.1/"
   xmlns:cc="http://creativecommons.org/ns#"
   xmlns:rdf="http://www.w3.org/1999/02/22-rdf-syntax-ns#"
   xmlns:svg="http://www.w3.org/2000/svg"
   xmlns="http://www.w3.org/2000/svg"
   xmlns:sodipodi="http://sodipodi.sourceforge.net/DTD/sodipodi-0.dtd"
   xmlns:inkscape="http://www.inkscape.org/namespaces/inkscape"
   enable-background="new 0 0 24 24"
   height="24px"
   id="Layer_1"
   version="1.1"
   viewBox="0 0 24 24"
   width="24px"
   xml:space="preserve"
   sodipodi:docname="iconfinder_office-48_809574.svg"
   inkscape:version="0.92.0 r15299"><metadata
     id="metadata4534"><rdf:RDF><cc:Work
         rdf:about=""><dc:format>image/svg+xml</dc:format><dc:type
           rdf:resource="http://purl.org/dc/dcmitype/StillImage" /></cc:Work></rdf:RDF></metadata><defs
     id="defs4532" /><sodipodi:namedview
     pagecolor="#ffffff"
     bordercolor="#666666"
     borderopacity="1"
     objecttolerance="10"
     gridtolerance="10"
     guidetolerance="10"
     inkscape:pageopacity="0"
     inkscape:pageshadow="2"
     inkscape:window-width="1920"
     inkscape:window-height="1017"
     id="namedview4530"
     showgrid="false"
     inkscape:zoom="9.8333333"
     inkscape:cx="12"
     inkscape:cy="12"
     inkscape:window-x="-8"
     inkscape:window-y="-8"
     inkscape:window-maximized="1"
     inkscape:current-layer="Layer_1" /><path
     d="M22.5,6c-2-2-5.2-2-7.2,0l-8.7,8.6c-1.2,1.2-1.2,3.1,0,4.3c1.2,1.2,3.1,1.2,4.3,0l7.2-7.2c0.4-0.4,0.4-1,0-1.4  c-0.4-0.4-1-0.4-1.4,0l-7.2,7.2c-0.4,0.4-1,0.4-1.4,0c-0.4-0.4-0.4-1,0-1.4l8.7-8.7c1.2-1.2,3.1-1.2,4.3,0c1.2,1.2,1.2,3.1,0,4.3  l-8.7,8.6c-2,2-5.2,2-7.2,0c-2-2-2-5.2,0-7.2L16.7,1.7c0.4-0.4,0.4-1,0-1.4s-1-0.4-1.4,0L3.7,11.8c-2.8,2.8-2.8,7.3,0,10.1  c2.8,2.8,7.3,2.8,10.1,0l8.7-8.6C24.4,11.3,24.4,8,22.5,6z"
     id="path4527"
     style="fill:#ffffff" /></svg>