<?xml version="1.0" encoding="UTF-8" standalone="no"?>
<svg
   xmlns:dc="http://purl.org/dc/elements/1.1/"
   xmlns:cc="http://creativecommons.org/ns#"
   xmlns:rdf="http://www.w3.org/1999/02/22-rdf-syntax-ns#"
   xmlns:svg="http://www.w3.org/2000/svg"
   xmlns="http://www.w3.org/2000/svg"
   xmlns:sodipodi="http://sodipodi.sourceforge.net/DTD/sodipodi-0.dtd"
   xmlns:inkscape="http://www.inkscape.org/namespaces/inkscape"
   height="24px"
   version="1.2"
   viewBox="0 0 24 24"
   width="24px"
   xml:space="preserve"
   id="svg55"
   sodipodi:docname="iconfinder_contacts_216165.svg"
   inkscape:version="0.92.0 r15299"><metadata
     id="metadata61"><rdf:RDF><cc:Work
         rdf:about=""><dc:format>image/svg+xml</dc:format><dc:type
           rdf:resource="http://purl.org/dc/dcmitype/StillImage" /></cc:Work></rdf:RDF></metadata><defs
     id="defs59" /><sodipodi:namedview
     pagecolor="#ffffff"
     bordercolor="#666666"
     borderopacity="1"
     objecttolerance="10"
     gridtolerance="10"
     guidetolerance="10"
     inkscape:pageopacity="0"
     inkscape:pageshadow="2"
     inkscape:window-width="1920"
     inkscape:window-height="1017"
     id="namedview57"
     showgrid="false"
     inkscape:zoom="9.8333333"
     inkscape:cx="12"
     inkscape:cy="12"
     inkscape:window-x="-8"
     inkscape:window-y="-8"
     inkscape:window-maximized="1"
     inkscape:current-layer="svg55" /><g
     id="Layer_1"
     style="fill:#ffffff"><g
       id="g52"
       style="fill:#ffffff"><path
         d="M19,3H8C6.346,3,5,4.346,5,6v1H4C3.447,7,3,7.448,3,8s0.447,1,1,1h1v2H4c-0.553,0-1,0.448-1,1s0.447,1,1,1h1v2H4    c-0.553,0-1,0.448-1,1s0.447,1,1,1h1v1c0,1.654,1.346,3,3,3h11c1.654,0,3-1.346,3-3V6C22,4.346,20.654,3,19,3z M7,6    c0-0.551,0.449-1,1-1v2H7V6z M7,9h1v2H7V9z M7,13h1v2H7V13z M7,18v-1h1v2C7.449,19,7,18.551,7,18z M20,18c0,0.551-0.449,1-1,1H9V5    h10c0.551,0,1,0.449,1,1V18z"
         id="path46"
         style="fill:#ffffff" /><circle
         cx="14"
         cy="10.5"
         r="2"
         id="circle48"
         style="fill:#ffffff" /><path
         d="M14,13.356c-1.562,0-2.5,0.715-2.5,1.429c0,0.357,0.938,0.715,2.5,0.715c1.466,0,2.5-0.357,2.5-0.715    C16.5,14.071,15.52,13.356,14,13.356z"
         id="path50"
         style="fill:#ffffff" /></g></g></svg>