<?xml version="1.0" encoding="UTF-8" standalone="no"?>
<svg
   xmlns:dc="http://purl.org/dc/elements/1.1/"
   xmlns:cc="http://creativecommons.org/ns#"
   xmlns:rdf="http://www.w3.org/1999/02/22-rdf-syntax-ns#"
   xmlns:svg="http://www.w3.org/2000/svg"
   xmlns="http://www.w3.org/2000/svg"
   xmlns:sodipodi="http://sodipodi.sourceforge.net/DTD/sodipodi-0.dtd"
   xmlns:inkscape="http://www.inkscape.org/namespaces/inkscape"
   enable-background="new 0 0 24 24"
   height="24px"
   id="Layer_1"
   version="1.1"
   viewBox="0 0 24 24"
   width="24px"
   xml:space="preserve"
   sodipodi:docname="iconfinder_office-53_809601.svg"
   inkscape:version="0.92.0 r15299"><metadata
     id="metadata4525"><rdf:RDF><cc:Work
         rdf:about=""><dc:format>image/svg+xml</dc:format><dc:type
           rdf:resource="http://purl.org/dc/dcmitype/StillImage" /></cc:Work></rdf:RDF></metadata><defs
     id="defs4523" /><sodipodi:namedview
     pagecolor="#ffffff"
     bordercolor="#666666"
     borderopacity="1"
     objecttolerance="10"
     gridtolerance="10"
     guidetolerance="10"
     inkscape:pageopacity="0"
     inkscape:pageshadow="2"
     inkscape:window-width="1920"
     inkscape:window-height="1017"
     id="namedview4521"
     showgrid="false"
     inkscape:zoom="9.8333333"
     inkscape:cx="12"
     inkscape:cy="12"
     inkscape:window-x="-8"
     inkscape:window-y="-8"
     inkscape:window-maximized="1"
     inkscape:current-layer="Layer_1" /><path
     d="M 24,4.1 C 24,3.5 23.5,3 22.9,3 H 1.1 C 0.5,3 0,3.5 0,4.1 V 18.9 C 0,19.5 0.5,20 1.1,20 h 21.8 c 0.6,0 1.1,-0.5 1.1,-1.1 z m -15.8,8.4 3,2.9 c 0.4,0.4 1.2,0.4 1.6,-0.1 l 3,-2.8 5.3,5.5 H 2.9 Z M 2,17.1 V 6 l 5.5,5.5 z M 16.5,11.5 22,6 V 17.1 Z M 22,5 V 4.6 L 12,14.5 2,4.6 V 5 Z"
     id="path4518"
     inkscape:connector-curvature="0"
     style="fill:#ffffff" /></svg>