<?xml version="1.0" encoding="UTF-8" standalone="no"?>
<svg
   xmlns:dc="http://purl.org/dc/elements/1.1/"
   xmlns:cc="http://creativecommons.org/ns#"
   xmlns:rdf="http://www.w3.org/1999/02/22-rdf-syntax-ns#"
   xmlns:svg="http://www.w3.org/2000/svg"
   xmlns="http://www.w3.org/2000/svg"
   xmlns:sodipodi="http://sodipodi.sourceforge.net/DTD/sodipodi-0.dtd"
   xmlns:inkscape="http://www.inkscape.org/namespaces/inkscape"
   data-name="Layer 1"
   id="Layer_1"
   viewBox="0 0 128 128"
   version="1.1"
   sodipodi:docname="iconfinder_SocialMedia_Messenger-Outline_2959746.svg"
   inkscape:version="0.92.0 r15299">
  <metadata
     id="metadata23">
    <rdf:RDF>
      <cc:Work
         rdf:about="">
        <dc:format>image/svg+xml</dc:format>
        <dc:type
           rdf:resource="http://purl.org/dc/dcmitype/StillImage" />
      </cc:Work>
    </rdf:RDF>
  </metadata>
  <sodipodi:namedview
     pagecolor="#ffffff"
     bordercolor="#666666"
     borderopacity="1"
     objecttolerance="10"
     gridtolerance="10"
     guidetolerance="10"
     inkscape:pageopacity="0"
     inkscape:pageshadow="2"
     inkscape:window-width="1920"
     inkscape:window-height="1017"
     id="namedview21"
     showgrid="false"
     inkscape:zoom="6.625"
     inkscape:cx="64"
     inkscape:cy="64"
     inkscape:window-x="-8"
     inkscape:window-y="-8"
     inkscape:window-maximized="1"
     inkscape:current-layer="Layer_1" />
  <defs
     id="defs12">
    <style
       id="style10">.cls-1{fill:#062b31;}</style>
  </defs>
  <title
     id="title14" />
  <path
     class="cls-1"
     d="M64,20.5c24,0,43.5,17.76,43.5,39.59S88,99.69,64,99.69a47.6,47.6,0,0,1-11.71-1.46l-2.38-.6-2.18,1.12-9,4.63V92.44l-2.56-2C26.2,82.93,20.5,71.85,20.5,60.09,20.5,38.26,40,20.5,64,20.5M64,14C36.39,14,14,34.64,14,60.09c0,14.32,7.08,27.11,18.19,35.57V114l18.5-9.48A54,54,0,0,0,64,106.19c27.61,0,50-20.64,50-46.09S91.61,14,64,14Z"
     id="path16"
     style="fill:#ffffff" />
  <polygon
     class="cls-1"
     points="33.19 74.06 58.77 46.62 71.76 59.7 94.81 47.1 69.13 75.13 56.53 61.36 33.19 74.06"
     id="polygon18"
     style="fill:#ffffff" />
</svg>
