<?xml version="1.0" encoding="UTF-8" standalone="no"?>
<svg
   xmlns:dc="http://purl.org/dc/elements/1.1/"
   xmlns:cc="http://creativecommons.org/ns#"
   xmlns:rdf="http://www.w3.org/1999/02/22-rdf-syntax-ns#"
   xmlns:svg="http://www.w3.org/2000/svg"
   xmlns="http://www.w3.org/2000/svg"
   xmlns:sodipodi="http://sodipodi.sourceforge.net/DTD/sodipodi-0.dtd"
   xmlns:inkscape="http://www.inkscape.org/namespaces/inkscape"
   enable-background="new 0 0 32 32"
   height="32px"
   id="Layer_1"
   version="1.1"
   viewBox="0 0 32 32"
   width="32px"
   xml:space="preserve"
   sodipodi:docname="mobile-blanco.svg"
   inkscape:version="0.92.0 r15299"><metadata
     id="metadata5651"><rdf:RDF><cc:Work
         rdf:about=""><dc:format>image/svg+xml</dc:format><dc:type
           rdf:resource="http://purl.org/dc/dcmitype/StillImage" /></cc:Work></rdf:RDF></metadata><defs
     id="defs5649" /><sodipodi:namedview
     pagecolor="#ffffff"
     bordercolor="#666666"
     borderopacity="1"
     objecttolerance="10"
     gridtolerance="10"
     guidetolerance="10"
     inkscape:pageopacity="0"
     inkscape:pageshadow="2"
     inkscape:window-width="1920"
     inkscape:window-height="1017"
     id="namedview5647"
     showgrid="false"
     inkscape:zoom="7.375"
     inkscape:cx="16"
     inkscape:cy="16"
     inkscape:window-x="-8"
     inkscape:window-y="-8"
     inkscape:window-maximized="1"
     inkscape:current-layer="Layer_1" /><g
     id="iphone"
     style="fill:#ffffff"><path
       d="M24,0L8,0C6.342,0,5,1.343,5,3v26c0,1.658,1.343,3,3,3h16c1.656,0,3-1.344,3-3V3C27,1.342,25.656,0,24,0z    M25,29c0,0.551-0.449,1-1,1H8c-0.552,0-1-0.447-1-1v-2.004h18V29z M25,25.996H7V6L25,6V25.996z M25,5L7,5V3c0-0.552,0.448-1,1-1   L24,2c0.551,0,1,0.448,1,1V5z"
       fill="#333333"
       id="path5639"
       style="fill:#ffffff" /><path
       d="M18,3.5C18,3.776,17.775,4,17.5,4h-3C14.223,4,14,3.776,14,3.5l0,0C14,3.223,14.223,3,14.5,3h3   C17.775,3,18,3.223,18,3.5L18,3.5z"
       fill="#333333"
       id="path5641"
       style="fill:#ffffff" /><path
       d="M17,28.496c0,0.275-0.225,0.5-0.5,0.5h-1c-0.276,0-0.5-0.225-0.5-0.5l0,0c0-0.277,0.224-0.5,0.5-0.5h1   C16.775,27.996,17,28.219,17,28.496L17,28.496z"
       fill="#333333"
       id="path5643"
       style="fill:#ffffff" /></g></svg>