<?xml version="1.0" ?><svg id="Layer_1" style="enable-background:new 0 0 96 96;" version="1.1" viewBox="0 0 96 96" xml:space="preserve" xmlns="http://www.w3.org/2000/svg" xmlns:xlink="http://www.w3.org/1999/xlink"><style type="text/css">
	.st0{fill-rule:evenodd;clip-rule:evenodd;fill:#5C6061;}
	.st1{fill-rule:evenodd;clip-rule:evenodd;fill:#56ADD9;}
	.st2{fill-rule:evenodd;clip-rule:evenodd;fill:#2B2D2D;}
	.st3{fill-rule:evenodd;clip-rule:evenodd;fill:#D1D3D4;}
	.st4{fill-rule:evenodd;clip-rule:evenodd;fill:#A7A9AC;}
</style><g id="XMLID_2_"><g id="XMLID_9_"><path class="st0" d="M21.5,0h48c2.2,0,4,1.8,4,4v88c0,2.2-1.8,4-4,4h-48c-2.2,0-4-1.8-4-4V4    C17.5,1.8,19.3,0,21.5,0L21.5,0z M21.5,12v72h48V12H21.5z" id="XMLID_14_"/><rect class="st1" height="72" id="XMLID_13_" width="48" x="21.5" y="12"/><path class="st2" d="M39.5,4h12c1.1,0,2,0.9,2,2v0c0,1.1-0.9,2-2,2h-12c-1.1,0-2-0.9-2-2v0C37.5,4.9,38.4,4,39.5,4    z" id="XMLID_12_"/><path class="st2" d="M29.5,8c1.1,0,2-0.9,2-2c0-1.1-0.9-2-2-2c-1.1,0-2,0.9-2,2C27.5,7.1,28.4,8,29.5,8z" id="XMLID_11_"/><path class="st2" d="M41.5,88h8c1.1,0,2,0.9,2,2v0c0,1.1-0.9,2-2,2h-8c-1.1,0-2-0.9-2-2v0    C39.5,88.9,40.4,88,41.5,88z" id="XMLID_10_"/></g><path class="st3" d="M63.1,57.6c0-6.3,0-12.6,0-18.8c0-3.5-2.8-6.3-6.3-6.3c-7.8,0-15.5,0-23.3,0   c-3.5,0-6.3,2.8-6.3,6.3c0,6.3,0,12.6,0,18.8c0,3.5,2.8,6.3,6.3,6.3h0.9l-5.6,7.6l13.7-7.6c4.8,0,9.6,0,14.3,0   C60.3,63.9,63.1,61.1,63.1,57.6z" id="XMLID_8_"/><path class="st4" d="M42.6,44c0-6.3,0-12.6,0-18.8c0-3.5,2.8-6.3,6.3-6.3c7.8,0,15.5,0,23.3,0c3.5,0,6.3,2.8,6.3,6.3   c0,6.3,0,12.6,0,18.8c0,3.5-2.8,6.3-6.3,6.3h-0.9l5.6,7.6l-13.7-7.6c-4.8,0-9.6,0-14.3,0C45.4,50.3,42.6,47.5,42.6,44z" id="XMLID_7_"/><path class="st3" d="M52.6,32c1.1,0,2,0.9,2,2c0,1.1-0.9,2-2,2c-1.1,0-2-0.9-2-2C50.6,32.9,51.5,32,52.6,32L52.6,32z    M60.6,32c1.1,0,2,0.9,2,2c0,1.1-0.9,2-2,2c-1.1,0-2-0.9-2-2C58.6,32.9,59.5,32,60.6,32L60.6,32z M68.6,32c1.1,0,2,0.9,2,2   c0,1.1-0.9,2-2,2c-1.1,0-2-0.9-2-2C66.6,32.9,67.5,32,68.6,32z" id="XMLID_3_"/></g></svg>