<?xml version="1.0" ?><svg version="1.1" viewBox="0 7.53973007202148 85.3332977294922 69.5589714050293" xmlns="http://www.w3.org/2000/svg" xmlns:xlink="http://www.w3.org/1999/xlink"><defs><linearGradient id="def0" x1="0.499916" x2="0.499916" y1="1.95357" y2="0.028264"><stop offset="0" stop-color="#FFFFFF" style="stop-opacity:0.101960784313725"/><stop offset="0.13" stop-color="#FFFFFF" style="stop-opacity:0.0784313725490196"/><stop offset="1" stop-color="#FFFFFF" style="stop-opacity:0.0509803921568627"/></linearGradient><linearGradient id="def1" x1="0.499948" x2="0.499948" y1="1.0511" y2="-0.361272"><stop offset="0" stop-color="#8BC6FF"/><stop offset="1" stop-color="#008BFF"/></linearGradient><linearGradient id="def2" x1="0.499948" x2="0.499948" y1="1.28056" y2="-0.719518"><stop offset="0" stop-color="#8BC6FF"/><stop offset="1" stop-color="#008BFF"/></linearGradient><linearGradient id="def3" x1="-1.37224" x2="1.27801" y1="0.500149" y2="0.500149"><stop offset="0" stop-color="#8BC6FF"/><stop offset="1" stop-color="#008BFF"/></linearGradient><linearGradient id="def4" x1="-0.0809995" x2="4.77399" y1="0.500015" y2="0.500015"><stop offset="0" stop-color="#8BC6FF"/><stop offset="1" stop-color="#008BFF"/></linearGradient><linearGradient gradientTransform="rotate(-45.0083 -0.119694 1.11988)" id="def5" x1="-0.119694" x2="1.14478" y1="1.11988" y2="1.11988"><stop offset="0" stop-color="#8BC6FF"/><stop offset="1" stop-color="#008BFF"/></linearGradient><linearGradient gradientTransform="rotate(-44.9917 0.237391 0.762533)" id="def6" x1="0.237391" x2="2.78399" y1="0.762533" y2="0.762533"><stop offset="0" stop-color="#8BC6FF"/><stop offset="1" stop-color="#008BFF"/></linearGradient><linearGradient gradientTransform="rotate(45.0056 -0.876518 -0.876932)" id="def7" x1="-0.876518" x2="1.73211" y1="-0.876932" y2="-0.876932"><stop offset="0" stop-color="#8BC6FF"/><stop offset="1" stop-color="#008BFF"/></linearGradient><linearGradient id="def8" x1="0.202208" x2="2.38485" y1="0.201914" y2="2.38456"><stop offset="0" stop-color="#8BC6FF"/><stop offset="1" stop-color="#008BFF"/></linearGradient><linearGradient id="def9" x1="2.94357E-05" x2="0.999994" y1="0.499988" y2="0.499988"><stop offset="0" stop-color="#8BC6FF"/><stop offset="1" stop-color="#008BFF"/></linearGradient><linearGradient id="def10" x1="0.907553" x2="-0.0549749" y1="0.895675" y2="-0.0388645"><stop offset="0" stop-color="#8BC6FF"/><stop offset="1" stop-color="#0079FF"/></linearGradient><linearGradient id="def11" x1="1.04363" x2="-0.349574" y1="-0.0599654" y2="1.37479"><stop offset="0" stop-color="#8BC6FF"/><stop offset="1" stop-color="#0079FF"/></linearGradient><linearGradient id="def12" x1="-2.39751E-05" x2="1.00013" y1="0.500166" y2="0.500166"><stop offset="0" stop-color="#8BC6FF" style="stop-opacity:0.301960784313725"/><stop offset="1" stop-color="#8FD4FF" style="stop-opacity:0.301960784313725"/></linearGradient></defs><g><path d="M0,72.9453L85.3333,72.9453 85.3333,7.54 0,7.54 0,72.9453z" fill="#A3A3A3"/><path d="M83.6373,71.288L1.48267,71.288 1.48267,9.2 83.6373,9.2 83.6373,71.288z" fill="#AFAFAF"/><path d="M80.7173,67.1053L3.95067,67.1053 3.95067,20.8373 80.7173,20.8373 80.7173,67.1053z" fill="#CFD8E5"/><path d="M79.596,65.9707L4.848,65.9707 4.848,21.9747 79.596,21.9747 79.596,65.9707z" fill="#E2E9F2"/><g><path d="M80.7175,14.8776C80.7175,17.2629 78.7841,19.1949 76.3975,19.1949 74.0148,19.1949 72.0801,17.2629 72.0801,14.8776 72.0801,12.4923 74.0148,10.5589 76.3975,10.5589 78.7841,10.5589 80.7175,12.4923 80.7175,14.8776z" fill="#A3A3A3"/><path d="M80.1068,14.8776C80.1068,16.9256 78.4468,18.5856 76.3975,18.5856 74.3495,18.5856 72.6895,16.9256 72.6895,14.8776 72.6895,12.8296 74.3495,11.1683 76.3975,11.1683 78.4468,11.1683 80.1068,12.8296 80.1068,14.8776z" fill="#FF7031"/><path d="M69.4948,14.8776C69.4948,17.2629 67.5601,19.1949 65.1761,19.1949 62.7908,19.1949 60.8561,17.2629 60.8561,14.8776 60.8561,12.4923 62.7908,10.5589 65.1761,10.5589 67.5601,10.5589 69.4948,12.4923 69.4948,14.8776z" fill="#A3A3A3"/><path d="M68.8855,14.8776C68.8855,16.9256 67.2228,18.5856 65.1761,18.5856 63.1281,18.5856 61.4681,16.9256 61.4681,14.8776 61.4681,12.8296 63.1281,11.1683 65.1761,11.1683 67.2228,11.1683 68.8855,12.8296 68.8855,14.8776z" fill="#E2E9F2"/><path d="M58.1107,14.8776C58.1107,17.2629 56.1747,19.1949 53.792,19.1949 51.4067,19.1949 49.472,17.2629 49.472,14.8776 49.472,12.4923 51.4067,10.5589 53.792,10.5589 56.1747,10.5589 58.1107,12.4923 58.1107,14.8776z" fill="#A3A3A3"/><path d="M57.5,14.8776C57.5,16.9256 55.8387,18.5856 53.792,18.5856 51.7427,18.5856 50.0827,16.9256 50.0827,14.8776 50.0827,12.8296 51.7427,11.1683 53.792,11.1683 55.8387,11.1683 57.5,12.8296 57.5,14.8776z" fill="#E2E9F2"/></g><path d="M0,72.9453L85.3333,72.9453 85.3333,7.54 0,7.54 0,72.9453z" fill="url(#def0)"/><g><path d="M8.10813,7.53973L56.2641,72.9451 76.3348,72.9451 28.1788,7.53973 8.10813,7.53973z" fill="#FFFFFF" style="fill-opacity:0.203921568627451"/><path d="M37.9661,7.53973L85.3328,71.8744 85.3328,58.2437 48.0021,7.53973 37.9661,7.53973z" fill="#FFFFFF" style="fill-opacity:0.203921568627451"/></g><path d="M36.448,35.372L46.1507,35.372 46.1507,25.668 36.448,25.668 36.448,35.372z" fill="url(#def1)"/><path d="M36.448,77.0987L46.1507,77.0987 46.1507,67.3933 36.448,67.3933 36.448,77.0987z" fill="url(#def2)"/><path d="M57.1013,56.2347L66.8053,56.2347 66.8053,46.5307 57.1013,46.5307 57.1013,56.2347z" fill="url(#def3)"/><path d="M15.3747,56.2347L25.08,56.2347 25.08,46.5307 15.3747,46.5307 15.3747,56.2347z" fill="url(#def4)"/><path d="M49.052,36.7773L55.9147,43.6387 62.78,36.7773 55.916,29.9147 49.052,36.7773z" fill="url(#def5)"/><path d="M19.5493,66.2827L26.412,73.1467 33.2733,66.2827 26.412,59.4187 19.5493,66.2827z" fill="url(#def6)"/><path d="M48.9067,66.136L55.7693,72.996 62.6333,66.136 55.7693,59.272 48.9067,66.136z" fill="url(#def7)"/><path d="M19.4013,36.6307L26.264,43.492 33.1253,36.6307 26.264,29.768 19.4013,36.6307z" fill="url(#def8)"/><path d="M20.2253,51.3813C20.2253,62.9053,29.568,72.2467,41.0907,72.2467L41.0907,72.2467C52.6133,72.2467,61.9547,62.9053,61.9547,51.3813L61.9547,51.3813C61.9547,39.86,52.6133,30.52,41.0907,30.52L41.0907,30.52C29.568,30.52,20.2253,39.86,20.2253,51.3813z M30.168,51.1733C30.168,45.1413,35.0573,40.252,41.0907,40.252L41.0907,40.252C47.124,40.252,52.0133,45.1413,52.0133,51.1733L52.0133,51.1733C52.0133,57.2067,47.124,62.096,41.0907,62.096L41.0907,62.096C35.0573,62.096,30.168,57.2067,30.168,51.1733z" fill="url(#def9)"/><path d="M27.6413,51.3813C27.6413,58.8093,33.664,64.8307,41.0907,64.8307L41.0907,64.8307C48.5173,64.8307,54.5387,58.8093,54.5387,51.3813L54.5387,51.3813C54.5387,43.956,48.5173,37.9347,41.0907,37.9347L41.0907,37.9347C33.664,37.9347,27.6413,43.956,27.6413,51.3813z M30.376,51.3813C30.376,45.3493,35.2667,40.46,41.2987,40.46L41.2987,40.46C47.3307,40.46,52.2213,45.3493,52.2213,51.3813L52.2213,51.3813C52.2213,57.4147,47.3307,62.304,41.2987,62.304L41.2987,62.304C35.2667,62.304,30.376,57.4147,30.376,51.3813z" fill="url(#def10)"/><path d="M37.3853,51.384C37.3853,53.5427,39.1387,55.296,41.2987,55.296L41.2987,55.296C43.4587,55.296,45.2107,53.5427,45.2107,51.384L45.2107,51.384C45.2107,49.2213,43.4587,47.4693,41.2987,47.4693L41.2987,47.4693C39.1387,47.4693,37.3853,49.2213,37.3853,51.384z" fill="url(#def11)"/><path d="M39.588,50.828C39.588,49.508 40.6547,48.44 41.972,48.44 43.2907,48.44 44.3613,49.508 44.3613,50.828 44.3613,52.1427 43.2907,53.2147 41.972,53.2147 40.6547,53.2147 39.588,52.1427 39.588,50.828z" fill="url(#def12)"/></g></svg>