<?xml version="1.0" encoding="UTF-8" standalone="no"?>
<svg
   xmlns:dc="http://purl.org/dc/elements/1.1/"
   xmlns:cc="http://creativecommons.org/ns#"
   xmlns:rdf="http://www.w3.org/1999/02/22-rdf-syntax-ns#"
   xmlns:svg="http://www.w3.org/2000/svg"
   xmlns="http://www.w3.org/2000/svg"
   xmlns:sodipodi="http://sodipodi.sourceforge.net/DTD/sodipodi-0.dtd"
   xmlns:inkscape="http://www.inkscape.org/namespaces/inkscape"
   enable-background="new 0 0 24 24"
   height="24px"
   id="Layer_1"
   version="1.1"
   viewBox="0 0 24 24"
   width="24px"
   xml:space="preserve"
   sodipodi:docname="pie-blanco.svg"
   inkscape:version="0.92.0 r15299"><metadata
     id="metadata5094"><rdf:RDF><cc:Work
         rdf:about=""><dc:format>image/svg+xml</dc:format><dc:type
           rdf:resource="http://purl.org/dc/dcmitype/StillImage" /></cc:Work></rdf:RDF></metadata><defs
     id="defs5092" /><sodipodi:namedview
     pagecolor="#ffffff"
     bordercolor="#666666"
     borderopacity="1"
     objecttolerance="10"
     gridtolerance="10"
     guidetolerance="10"
     inkscape:pageopacity="0"
     inkscape:pageshadow="2"
     inkscape:window-width="1920"
     inkscape:window-height="1017"
     id="namedview5090"
     showgrid="false"
     inkscape:zoom="9.8333333"
     inkscape:cx="12"
     inkscape:cy="12"
     inkscape:window-x="-8"
     inkscape:window-y="-8"
     inkscape:window-maximized="1"
     inkscape:current-layer="Layer_1" /><g
     id="g5087"
     style="fill:#ffffff"><path
       d="M12,0v12h12C24,5.4,18.6,0,12,0z M13,2.1c4.7,0.5,8.5,4.2,8.9,8.9H13V2.1z"
       id="path5083"
       style="fill:#ffffff" /><path
       d="M11,0.1C4.8,0.6,0,5.7,0,12c0,6.6,5.4,12,12,12c6.3,0,11.4-4.8,11.9-11H11V0.1z M21.8,14c-0.9,4.6-5,8-9.8,8   C6.5,22,2,17.5,2,12c0-4.8,3.4-8.9,8-9.8V14H21.8z"
       id="path5085"
       style="fill:#ffffff" /></g></svg>